<svg xmlns="http://www.w3.org/2000/svg" width="605.437" height="606.382" viewBox="0 0 605.437 606.382">
  <g id="sliced_Pizza" data-name="sliced Pizza" transform="translate(-911.237 544.191)">
    <g id="Subtraction_3" data-name="Subtraction 3" transform="translate(890.135 -258.003) rotate(-39)" fill="none">
      <path d="M237.758,434a218.644,218.644,0,0,1-43.734-4.408A215.831,215.831,0,0,1,116.43,396.94,216.81,216.81,0,0,1,29.019,276.5H42.454c25.841,85.374,106.153,145,195.3,145,112.486,0,204-91.514,204-204s-91.514-204-204-204a204.377,204.377,0,0,0-197.019,151H27.152A216.936,216.936,0,0,1,194.024,4.408a219.14,219.14,0,0,1,87.467,0A215.833,215.833,0,0,1,359.084,37.06a217.631,217.631,0,0,1,78.62,95.474,215.956,215.956,0,0,1,12.644,40.733,219.093,219.093,0,0,1,0,87.466A215.824,215.824,0,0,1,417.7,338.327a217.637,217.637,0,0,1-95.474,78.62,215.894,215.894,0,0,1-40.733,12.645A218.626,218.626,0,0,1,237.758,434Z" stroke="none"/>
      <path d="M 237.7575531005859 433.9998168945312 C 223.0348663330078 433.9998168945312 208.3207092285156 432.5166625976562 194.0237884521484 429.5916748046875 C 180.0904083251953 426.7402038574219 166.3857116699219 422.48583984375 153.2907104492188 416.9466857910156 C 140.4309387207031 411.5068969726562 128.0293273925781 404.7755126953125 116.4303283691406 396.9396057128906 C 104.9403228759766 389.1773681640625 94.13509368896484 380.26220703125 84.31471252441406 370.4418334960938 C 74.49494171142578 360.6219787597656 65.58009338378906 349.8170471191406 57.81778717041016 338.3271484375 C 49.97963333129883 326.724609375 43.24794006347656 314.3226928710938 37.80994033813477 301.4658203125 C 34.38994216918945 293.3794555664062 31.43209457397461 284.9796752929688 29.01855659484863 276.4998168945312 L 42.45363235473633 276.4998168945312 C 68.29509735107422 361.8739013671875 148.6066284179688 421.499755859375 237.7575531005859 421.499755859375 C 350.2436218261719 421.499755859375 441.7577819824219 329.9860534667969 441.7577819824219 217.5003662109375 C 441.7577819824219 105.0142135620117 350.2436218261719 13.50006198883057 237.7575531005859 13.50006198883057 C 145.6942443847656 13.50006198883057 64.67694091796875 75.59352111816406 40.73832702636719 164.5002136230469 L 27.1523265838623 164.5002136230469 C 29.86324882507324 153.5991363525391 33.44932556152344 142.8446044921875 37.80994033813477 132.5339813232422 C 43.24824905395508 119.6764450073242 49.97994232177734 107.2748336791992 57.81778717041016 95.67359924316406 C 65.57948303222656 84.18367767333984 74.49432373046875 73.37844848632812 84.31471252441406 63.55798721313477 C 94.13524627685547 53.73752212524414 104.9404830932617 44.82236862182617 116.4303283691406 37.06021499633789 C 128.0299377441406 29.22406196594238 140.4314727783203 22.49267768859863 153.2907104492188 17.0532169342041 C 166.3857116699219 11.5139856338501 180.0904083251953 7.259677886962891 194.0237884521484 4.408215999603271 C 222.6175537109375 -1.441832304000854 252.8988647460938 -1.441734910011292 281.4903259277344 4.408215999603271 C 295.4229431152344 7.259369850158691 309.1275634765625 11.5136775970459 322.223388671875 17.0532169342041 C 335.0836486816406 22.49267768859863 347.4852600097656 29.22406196594238 359.0838012695312 37.06021499633789 C 370.5738525390625 44.82252502441406 381.3790893554688 53.73767852783203 391.1994018554688 63.55798721313477 C 401.0169372558594 73.37460327148438 409.9320068359375 84.17983245849609 417.6972351074219 95.67359924316406 C 425.5334167480469 107.2721405029297 432.2648010253906 119.673828125 437.7042541503906 132.5339813232422 C 443.2434692382812 145.6314544677734 447.4974670410156 159.3360595703125 450.3483276367188 173.2671356201172 C 453.2740173339844 187.5615234375 454.7574157714844 202.2753753662109 454.7574157714844 216.9999084472656 C 454.7574157714844 231.7244415283203 453.2740173339844 246.4382934570312 450.3483276367188 260.732666015625 C 447.4974670410156 274.6639709472656 443.243408203125 288.3685302734375 437.7042541503906 301.4658203125 C 432.2651062011719 314.3251342773438 425.5337829589844 326.7271423339844 417.6972351074219 338.3271484375 C 409.931396484375 349.8209228515625 401.0162353515625 360.6258239746094 391.1994018554688 370.4418334960938 C 381.3790893554688 380.26220703125 370.5738525390625 389.1773071289062 359.0838012695312 396.9396057128906 C 347.4854736328125 404.7756652832031 335.0838623046875 411.5070495605469 322.223388671875 416.9466857910156 C 309.1275634765625 422.4861450195312 295.4229431152344 426.7405090332031 281.4903259277344 429.5916748046875 C 267.1943359375 432.5166625976562 252.4804840087891 433.9998168945312 237.7575531005859 433.9998168945312 Z" stroke="none" fill="#000"/>
    </g>
    <g id="sliced_Pizza-2" data-name="sliced Pizza">
      <g id="Subtraction_1" data-name="Subtraction 1" transform="translate(960 -491)" fill="none">
        <path d="M250,500a248.826,248.826,0,0,1-135.7-40L219.164,261.61,23.685,356.354a248.674,248.674,0,0,1-17.54-51.017A252.32,252.32,0,0,1,5.079,199.617,248.632,248.632,0,0,1,42.7,110.223,250.73,250.73,0,0,1,152.688,19.646,248.739,248.739,0,0,1,199.616,5.079a252.437,252.437,0,0,1,100.767,0A248.631,248.631,0,0,1,389.777,42.7a250.731,250.731,0,0,1,90.576,109.993,248.746,248.746,0,0,1,14.567,46.928,252.44,252.44,0,0,1,0,100.768A248.631,248.631,0,0,1,457.3,389.778a250.729,250.729,0,0,1-109.993,90.576,248.749,248.749,0,0,1-46.928,14.567A251.85,251.85,0,0,1,250,500ZM74.017,427.568c-2.615-2.592-5.211-5.281-7.715-7.992l7.717,7.991Z" stroke="none"/>
        <path d="M 249.9993438720703 480.0003967285156 C 265.6181030273438 480.0003967285156 281.2206726074219 478.4281616210938 296.3735961914062 475.3274230957031 C 311.1317443847656 472.3074035644531 325.6482543945312 467.8013305664062 339.5198364257812 461.9342346191406 C 353.1437683105469 456.1718139648438 366.2858276367188 449.038330078125 378.5809326171875 440.7319946289062 C 390.7640075683594 432.5012512207031 402.2211608886719 423.0480651855469 412.6340942382812 412.6350708007812 C 423.0469970703125 402.2222290039062 432.5001831054688 390.7649841308594 440.7310180664062 378.5818176269531 C 449.0371704101562 366.2869873046875 456.1706848144531 353.1448974609375 461.9331665039062 339.5208129882812 C 467.8002624511719 325.6493225097656 472.3064270019531 311.1328125 475.326416015625 296.3748168945312 C 478.42724609375 281.2208251953125 479.99951171875 265.6181640625 479.99951171875 250.000244140625 C 479.99951171875 234.3824157714844 478.42724609375 218.7799072265625 475.3265075683594 203.6262512207031 C 472.3064270019531 188.8678283691406 467.8002624511719 174.3514099121094 461.9332580566406 160.4801635742188 C 456.1709289550781 146.8563232421875 449.0374145507812 133.7143249511719 440.7310180664062 121.419075012207 C 432.5004272460938 109.2360763549805 423.0472412109375 97.77890777587891 412.6340026855469 87.36566162109375 C 402.2213439941406 76.95282745361328 390.76416015625 67.49966430664062 378.5808410644531 59.26874542236328 C 366.2861022949219 50.96249389648438 353.1440124511719 43.82907867431641 339.5198364257812 38.06649398803711 C 325.6479187011719 32.19924545288086 311.1315002441406 27.69299507141113 296.3736877441406 24.67316055297852 C 266.06689453125 18.47150993347168 233.9320068359375 18.47147941589355 203.6252593994141 24.67316055297852 C 188.8675842285156 27.69299507141113 174.3511657714844 32.19916152954102 160.4793395996094 38.06649398803711 C 146.8554229736328 43.82891082763672 133.7135009765625 50.96240997314453 121.4185028076172 59.26874542236328 C 109.2350921630859 67.49974060058594 97.77800750732422 76.95299530029297 87.36534118652344 87.36582946777344 C 76.95242309570312 97.77866363525391 67.49933624267578 109.2358245849609 59.26850509643555 121.419075012207 C 50.96225738525391 133.7140808105469 43.82875442504883 146.8561553955078 38.06625747680664 160.4802398681641 C 32.19908905029297 174.3515777587891 27.69300651550293 188.8679962158203 24.6730899810791 203.6260833740234 C 21.57225608825684 218.7799072265625 20.0000057220459 234.3824157714844 20.0000057220459 250.000244140625 C 20.0000057220459 267.1917419433594 21.90217208862305 284.3267517089844 25.65375518798828 300.9292297363281 C 27.81406593322754 310.4897766113281 30.59856796264648 319.9248352050781 33.97528076171875 329.1416625976562 L 265.3691711425781 216.989990234375 L 140.8793487548828 452.5222778320312 C 154.5457458496094 459.90283203125 168.9192352294922 465.8720092773438 183.7948455810547 470.3348999023438 C 205.1724243164062 476.7485046386719 227.4468383789062 480.0003967285156 249.9993438720703 480.0003967285156 M 249.9993438720703 500.0003967285156 C 225.4990081787109 500.0003967285156 201.2909240722656 496.4646606445312 178.0476684570312 489.4914245605469 C 155.5396728515625 482.7386474609375 134.0929260253906 472.8176574707031 114.3032531738281 460.0037536621094 L 219.1635131835938 261.6102294921875 L 23.68517303466797 356.3544006347656 C 16.0131721496582 340.0570068359375 10.11242294311523 322.8924865722656 6.145589351654053 305.33740234375 C 2.067672491073608 287.2905883789062 5.859375050931703e-06 268.6724243164062 5.859375050931703e-06 250.000244140625 C 5.859375050931703e-06 233.0382385253906 1.708922505378723 216.0867462158203 5.079089164733887 199.6166534423828 C 8.363672256469727 183.5651550292969 13.26475620269775 167.7764129638672 19.64617347717285 152.6891632080078 C 25.91183853149414 137.87548828125 33.66692352294922 123.5879135131836 42.69600677490234 110.2229919433594 C 51.63933944702148 96.98507690429688 61.91017150878906 84.53665924072266 73.22317504882812 73.22366333007812 C 84.53600311279297 61.91065979003906 96.98433685302734 51.63982772827148 110.2223358154297 42.69632720947266 C 123.5874252319336 33.66699600219727 137.875 25.91191101074219 152.6883392333984 19.64640998840332 C 167.7758331298828 13.26491069793701 183.5644989013672 8.363743782043457 199.6157531738281 5.079160690307617 C 232.5557556152344 -1.661339044570923 267.4429931640625 -1.661339044570923 300.3831787109375 5.079160690307617 C 316.4345092773438 8.363743782043457 332.2232666015625 13.26491069793701 347.3108520507812 19.64640998840332 C 362.1241760253906 25.91191101074219 376.4119262695312 33.66699600219727 389.7770080566406 42.69632720947266 C 403.0150146484375 51.63974380493164 415.4634094238281 61.91065979003906 426.7762451171875 73.22366333007812 C 438.0891723632812 84.53657531738281 448.3600769042969 96.98490905761719 457.3034973144531 110.2229919433594 C 466.332763671875 123.5881576538086 474.0878295898438 137.8757476806641 480.3533325195312 152.6891632080078 C 486.7345886230469 167.7761535644531 491.6356811523438 183.5648345947266 494.92041015625 199.6166534423828 C 498.2905883789062 216.0867462158203 499.99951171875 233.0382385253906 499.99951171875 250.000244140625 C 499.99951171875 266.9623413085938 498.2905883789062 283.9139099121094 494.92041015625 300.3841552734375 C 491.6356811523438 316.4359130859375 486.7345886230469 332.2245788574219 480.3533325195312 347.3117370605469 C 474.0877685546875 362.1251525878906 466.3326721191406 376.4129028320312 457.3034973144531 389.7779235839844 C 448.3600158691406 403.0159912109375 438.0891723632812 415.4643249511719 426.7762451171875 426.7772521972656 C 415.4632568359375 438.09033203125 403.0149230957031 448.3611755371094 389.7770080566406 457.3045043945312 C 376.4118347167969 466.333740234375 362.1241760253906 474.0888366699219 347.3108520507812 480.3543395996094 C 332.2234191894531 486.7356567382812 316.4346618652344 491.6367492675781 300.3831787109375 494.9214172363281 C 283.9131774902344 498.2916564941406 266.961669921875 500.0003967285156 249.9993438720703 500.0003967285156 Z M 74.01717376708984 427.5676574707031 C 71.40192413330078 424.9757385253906 68.80600738525391 422.2866516113281 66.30167388916016 419.5752563476562 L 74.01866912841797 427.5663146972656 L 74.01717376708984 427.5676574707031 Z" stroke="none" fill="#000"/>
      </g>
      <g id="Path_1" data-name="Path 1" transform="matrix(0.695, 0.719, -0.719, 0.695, 1106.615, -259.087)" fill="none">
        <path d="M69.735,0l69.735,212.834H0Z" stroke="none"/>
        <path d="M 69.73545837402344 64.23350524902344 L 27.59922027587891 192.8343811035156 L 111.871696472168 192.8343811035156 L 69.73545837402344 64.23350524902344 M 69.73545837402344 -1.52587890625e-05 L 139.4709167480469 212.8343811035156 L 0 212.8343811035156 L 69.73545837402344 -1.52587890625e-05 Z" stroke="none" fill="#e5ce00"/>
      </g>
      <circle id="Ellipse_70" data-name="Ellipse 70" cx="17.5" cy="17.5" r="17.5" transform="translate(1054 -335)"/>
      <circle id="Ellipse_71" data-name="Ellipse 71" cx="17.5" cy="17.5" r="17.5" transform="translate(1129 -360)"/>
      <circle id="Ellipse_72" data-name="Ellipse 72" cx="17.5" cy="17.5" r="17.5" transform="translate(1116 -290)"/>
      <circle id="Ellipse_73" data-name="Ellipse 73" cx="17.5" cy="17.5" r="17.5" transform="translate(1107 -406)"/>
      <circle id="Ellipse_74" data-name="Ellipse 74" cx="17.5" cy="17.5" r="17.5" transform="translate(1179 -325)"/>
      <circle id="Ellipse_75" data-name="Ellipse 75" cx="17.5" cy="17.5" r="17.5" transform="translate(1186 -395)"/>
      <circle id="Ellipse_76" data-name="Ellipse 76" cx="17.5" cy="17.5" r="17.5" transform="translate(1227 -423)"/>
      <circle id="Ellipse_77" data-name="Ellipse 77" cx="17.5" cy="17.5" r="17.5" transform="translate(1252 -360)"/>
      <circle id="Ellipse_78" data-name="Ellipse 78" cx="17.5" cy="17.5" r="17.5" transform="translate(1287 -395)"/>
      <circle id="Ellipse_79" data-name="Ellipse 79" cx="17.5" cy="17.5" r="17.5" transform="translate(1313 -342)"/>
      <circle id="Ellipse_80" data-name="Ellipse 80" cx="17.5" cy="17.5" r="17.5" transform="translate(1252 -300)"/>
      <circle id="Ellipse_81" data-name="Ellipse 81" cx="17.5" cy="17.5" r="17.5" transform="translate(1305 -282)"/>
      <circle id="Ellipse_82" data-name="Ellipse 82" cx="17.5" cy="17.5" r="17.5" transform="translate(1365 -299)"/>
      <circle id="Ellipse_83" data-name="Ellipse 83" cx="17.5" cy="17.5" r="17.5" transform="translate(1354 -248)"/>
      <circle id="Ellipse_84" data-name="Ellipse 84" cx="17.5" cy="17.5" r="17.5" transform="translate(1256 -248)"/>
      <circle id="Ellipse_85" data-name="Ellipse 85" cx="17.5" cy="17.5" r="17.5" transform="translate(1337 -183)"/>
      <circle id="Ellipse_86" data-name="Ellipse 86" cx="17.5" cy="17.5" r="17.5" transform="translate(1296 -135)"/>
      <circle id="Ellipse_87" data-name="Ellipse 87" cx="17.5" cy="17.5" r="17.5" transform="translate(1288 -200)"/>
      <circle id="Ellipse_88" data-name="Ellipse 88" cx="17.5" cy="17.5" r="17.5" transform="translate(1239 -189)"/>
      <circle id="Ellipse_89" data-name="Ellipse 89" cx="17.5" cy="17.5" r="17.5" transform="translate(1245 -117)"/>
      <circle id="Ellipse_90" data-name="Ellipse 90" cx="17.5" cy="17.5" r="17.5" transform="translate(1186 -94)"/>
      <circle id="Ellipse_91" data-name="Ellipse 91" cx="17.5" cy="17.5" r="17.5" transform="translate(1196 -148)"/>
      <circle id="Ellipse_95" data-name="Ellipse 95" cx="17.5" cy="17.5" r="17.5" transform="translate(1019 -248)"/>
      <circle id="Ellipse_96" data-name="Ellipse 96" cx="17.5" cy="17.5" r="17.5" transform="translate(1025 -300)"/>
      <circle id="Ellipse_97" data-name="Ellipse 97" cx="17.5" cy="17.5" r="17.5" transform="translate(1072 -261)"/>
      <line id="Line_1" data-name="Line 1" x2="66.5" y2="66" transform="translate(1001 -124.5)" fill="none" stroke="#e5ce00" stroke-width="20"/>
      <circle id="Ellipse_100" data-name="Ellipse 100" cx="17.5" cy="17.5" r="17.5" transform="translate(1068 -134)" fill="red"/>
      <circle id="Ellipse_101" data-name="Ellipse 101" cx="17.5" cy="17.5" r="17.5" transform="translate(1078 -177)" fill="red"/>
      <circle id="Ellipse_102" data-name="Ellipse 102" cx="17.5" cy="17.5" r="17.5" transform="translate(1025 -135)" fill="red"/>
    </g>
  </g>
</svg>
